<?xml version="1.0" standalone="no"?>
<!DOCTYPE svg PUBLIC "-//W3C//DTD SVG 20010904//EN"
 "http://www.w3.org/TR/2001/REC-SVG-20010904/DTD/svg10.dtd">
<svg version="1.0" xmlns="http://www.w3.org/2000/svg"
 width="512.000000pt" height="512.000000pt" viewBox="0 0 512.000000 512.000000"
 preserveAspectRatio="xMidYMid meet">
<metadata>
Created by potrace 1.11, written by Peter Selinger 2001-2013
</metadata>
<g transform="translate(0.000000,512.000000) scale(0.100000,-0.100000)"
fill="#000000" stroke="none">
<path d="M3699 4506 c-300 -98 -433 -419 -291 -701 30 -61 132 -164 192 -196
153 -80 321 -82 465 -7 46 24 114 75 131 98 7 8 22 26 34 40 12 14 33 46 46
72 97 191 61 419 -91 571 -128 128 -321 177 -486 123z"/>
<path d="M2738 3924 c-120 -29 -256 -113 -618 -384 -531 -397 -624 -477 -680
-581 -65 -123 -78 -321 -28 -431 54 -116 86 -142 601 -463 l399 -248 -7 -36
c-4 -20 -9 -56 -11 -81 -2 -25 -7 -63 -10 -85 -8 -58 -12 -83 -19 -145 -12
-95 -14 -113 -24 -190 -6 -41 -13 -100 -16 -130 -3 -30 -8 -68 -10 -85 -20
-141 -27 -206 -26 -242 1 -60 37 -138 82 -177 108 -92 253 -63 332 66 29 47
33 63 98 408 11 58 21 116 24 130 5 26 24 131 30 165 5 31 24 137 30 165 28
138 65 385 65 429 -1 134 -73 206 -400 403 -69 41 -156 92 -195 113 -104 57
-102 50 -27 108 37 28 73 57 80 64 7 7 17 13 20 13 4 0 18 10 32 23 46 42 505
384 544 405 52 28 70 17 141 -82 11 -16 25 -33 30 -40 10 -11 124 -161 254
-333 94 -125 55 -118 661 -118 l505 0 35 25 c39 27 54 43 74 80 50 90 5 216
-94 266 -32 16 -76 17 -472 18 l-438 1 -96 150 c-53 83 -169 265 -257 405
-189 300 -196 310 -256 354 -89 64 -235 89 -353 60z"/>
<path d="M824 1955 c-245 -43 -462 -171 -615 -365 -220 -278 -269 -677 -123
-1006 113 -256 364 -473 628 -544 110 -30 123 -32 248 -35 220 -5 411 52 587
175 434 306 548 902 256 1344 -151 229 -383 381 -655 431 -67 12 -255 12 -326
0z m256 -389 c150 -20 306 -121 395 -256 65 -99 97 -203 97 -321 0 -104 -10
-153 -50 -244 -88 -202 -299 -344 -516 -348 -157 -2 -273 36 -389 128 -244
194 -292 545 -111 802 94 133 263 233 409 242 28 1 52 4 54 6 3 4 32 1 111 -9z"/>
<path d="M4030 1964 c-419 -50 -762 -357 -855 -764 -23 -102 -28 -275 -10
-377 61 -344 288 -625 608 -752 42 -17 86 -32 99 -35 13 -2 53 -11 89 -19 69
-14 269 -16 344 -3 347 62 644 316 758 647 15 42 29 94 33 115 3 22 8 43 11
47 3 5 7 64 9 131 3 140 -18 270 -63 384 -24 61 -34 82 -75 153 -7 13 -35 53
-62 89 -143 187 -345 317 -571 365 -72 16 -252 26 -315 19z m257 -410 c203
-59 342 -192 409 -391 56 -165 28 -357 -73 -506 -270 -400 -873 -325 -1043
130 -38 101 -44 250 -14 352 25 87 81 185 142 249 107 111 204 158 377 185 42
6 150 -4 202 -19z"/>
</g>
</svg>
